<svg version="1.1" id="Layer_1" xmlns="http://www.w3.org/2000/svg" xmlns:xlink="http://www.w3.org/1999/xlink" x="0px" y="0px"
	 width="100%" viewBox="0 0 500 500" enable-background="new 0 0 500 500" xml:space="preserve">
<path fill="#000000" opacity="1.000000" stroke="none" 
	d="
M281.000000,501.000000 
	C187.333359,501.000000 94.166710,501.000000 1.000050,501.000000 
	C1.000033,334.333405 1.000033,167.666794 1.000017,1.000139 
	C167.666565,1.000093 334.333130,1.000093 500.999756,1.000046 
	C500.999847,167.666519 500.999847,334.333038 500.999939,500.999786 
	C427.833344,501.000000 354.666656,501.000000 281.000000,501.000000 
M75.003929,235.500000 
	C75.004181,276.829498 75.002357,318.159027 75.011543,359.488525 
	C75.011948,361.318878 74.821159,363.213684 75.209579,364.970062 
	C83.604912,402.933533 113.354019,427.477814 151.008972,427.828644 
	C215.164337,428.426392 279.329346,428.016815 343.490234,427.950623 
	C349.118256,427.944824 354.779358,427.637146 360.368011,426.982483 
	C398.867737,422.472870 427.407501,390.795685 427.805298,352.083435 
	C428.486786,285.763000 428.104401,219.430252 427.937500,153.103256 
	C427.871643,126.931053 417.806549,105.184250 396.681000,89.386932 
	C384.505432,80.282257 370.826935,74.872856 355.084534,74.917236 
	C284.258057,75.116936 213.430740,74.998756 142.603745,75.029907 
	C140.297821,75.030922 137.933395,75.145988 135.695450,75.649132 
	C116.460579,79.973671 100.516792,89.746429 88.996223,105.766655 
	C80.551010,117.510345 74.875275,130.496948 74.956596,145.508194 
	C75.117287,175.171341 75.003967,204.835983 75.003929,235.500000 
z"/>
<path fill="#272727" opacity="1.000000" stroke="none" 
	d="
M75.003937,235.000000 
	C75.003967,204.835983 75.117287,175.171341 74.956596,145.508194 
	C74.875275,130.496948 80.551010,117.510345 88.996223,105.766655 
	C100.516792,89.746429 116.460579,79.973671 135.695450,75.649132 
	C137.933395,75.145988 140.297821,75.030922 142.603745,75.029907 
	C213.430740,74.998756 284.258057,75.116936 355.084534,74.917236 
	C370.826935,74.872856 384.505432,80.282257 396.681000,89.386932 
	C417.806549,105.184250 427.871643,126.931053 427.937500,153.103256 
	C428.104401,219.430252 428.486786,285.763000 427.805298,352.083435 
	C427.407501,390.795685 398.867737,422.472870 360.368011,426.982483 
	C354.779358,427.637146 349.118256,427.944824 343.490234,427.950623 
	C279.329346,428.016815 215.164337,428.426392 151.008972,427.828644 
	C113.354019,427.477814 83.604912,402.933533 75.209579,364.970062 
	C74.821159,363.213684 75.011948,361.318878 75.011543,359.488525 
	C75.002357,318.159027 75.004181,276.829498 75.003937,235.000000 
M233.194626,318.468018 
	C233.072083,333.766754 233.745605,349.124817 232.610519,364.348053 
	C231.395020,380.649780 226.715332,395.878204 211.091980,404.908356 
	C210.952759,404.988831 211.034851,405.452209 211.005051,405.851410 
	C221.242142,407.424927 231.307617,405.873932 239.850372,400.573761 
	C247.853577,395.608276 253.969452,395.444305 262.049469,400.511139 
	C270.627625,405.890320 280.783112,407.474060 292.295868,405.592041 
	C281.548706,399.796509 275.406158,391.446777 272.751129,380.963898 
	C270.723816,372.959412 269.180420,364.660767 268.852997,356.436035 
	C268.311218,342.826569 268.343964,329.134949 269.194946,315.544373 
	C270.243378,298.801086 279.717499,286.892303 293.427216,278.016571 
	C295.664551,276.568115 297.957367,274.682922 295.754120,272.119965 
	C294.709747,270.905060 291.605103,270.427094 289.887115,270.992493 
	C278.364197,274.784729 268.227844,281.086029 259.173096,289.122040 
	C256.354401,291.623657 253.684570,294.292999 251.029999,296.806580 
	C247.353363,293.409912 244.064285,290.103577 240.497940,287.129730 
	C231.865417,279.931396 222.356659,274.154999 211.557587,270.850708 
	C209.978912,270.367615 207.882248,271.577332 206.025253,272.003784 
	C206.751282,273.922577 207.054260,276.204102 208.310089,277.668549 
	C209.889694,279.510590 212.292740,280.627350 214.264145,282.155579 
	C225.844116,291.132263 232.123444,302.944763 233.194626,318.468018 
M226.000961,253.034393 
	C218.227112,236.774658 198.708801,229.878403 181.926971,237.561737 
	C182.055145,238.166092 182.095581,238.836685 182.336975,239.424789 
	C188.900925,255.415955 208.625244,262.057251 225.398666,255.766678 
	C225.859695,255.593765 225.970032,254.485748 226.000961,253.034393 
M318.632690,236.730911 
	C299.121124,230.581467 277.563690,239.974136 275.917206,255.342224 
	C291.312988,261.332428 308.167572,257.110046 316.553436,244.866531 
	C318.071472,242.650162 318.459747,239.659958 318.632690,236.730911 
M182.520752,274.077759 
	C185.028580,271.747192 187.536423,269.416595 190.082367,267.050568 
	C176.363022,254.519318 154.988953,256.920807 147.993866,271.219452 
	C157.721817,280.303040 169.472229,281.436005 182.520752,274.077759 
M340.931549,260.331726 
	C330.218170,257.001587 320.677795,258.911560 312.327454,266.509552 
	C321.812836,281.173584 342.958496,283.263977 355.037170,269.733917 
	C350.478516,266.650604 346.062592,263.663849 340.931549,260.331726 
M177.461548,185.151642 
	C180.528717,185.365265 183.595901,185.578888 186.646179,185.791336 
	C188.073944,168.376770 171.680176,153.974091 155.384216,157.529892 
	C154.834320,170.528809 162.824097,180.848602 177.461548,185.151642 
M151.720169,215.877350 
	C160.887299,221.477844 170.216812,221.956879 179.917572,217.284821 
	C173.524368,199.936951 152.656494,191.810089 139.904800,202.573944 
	C143.652283,206.874008 147.389572,211.162354 151.720169,215.877350 
M346.825195,160.254120 
	C346.092621,159.139420 345.501556,157.185974 344.606354,157.034897 
	C329.415283,154.471222 313.532166,169.876343 315.420441,185.161942 
	C326.421082,187.914520 344.242767,179.912888 346.825195,160.254120 
M361.054321,201.540268 
	C351.137482,193.252930 326.568909,198.539093 322.496887,217.312927 
	C337.295166,224.937820 353.805634,218.487579 361.054321,201.540268 
M246.131699,233.326996 
	C249.281693,235.881271 252.431686,238.435562 255.637817,241.035370 
	C265.556702,226.149277 259.709137,206.706390 244.345093,200.834259 
	C237.571533,210.062775 238.083405,222.034546 246.131699,233.326996 
M281.894348,158.472839 
	C293.565186,147.527588 294.765411,130.790115 284.574310,121.100288 
	C269.587372,130.264923 266.378387,148.375275 277.704498,161.268234 
	C278.883759,160.508469 280.108276,159.719559 281.894348,158.472839 
M229.271637,153.548965 
	C233.654861,139.842056 228.512344,126.402931 216.914124,121.254646 
	C205.839096,134.421646 209.947525,155.288696 225.090942,161.043884 
	C226.373001,158.832626 227.690231,156.560669 229.271637,153.548965 
M348.735107,231.060165 
	C344.264038,233.950409 339.792969,236.840652 335.134644,239.851959 
	C347.339722,253.244446 369.278717,251.267380 376.742249,237.170761 
	C368.830688,230.033554 359.802399,227.778885 348.735107,231.060165 
M127.134964,240.423645 
	C138.948288,251.857483 157.236481,251.951080 165.896652,240.622025 
	C156.211395,228.194580 139.158417,225.863602 127.414154,235.300491 
	C125.657341,236.712143 124.302414,237.931839 127.134964,240.423645 
M249.953293,181.476639 
	C259.817169,170.946991 261.264984,157.606293 253.677505,147.160538 
	C238.417999,153.607285 232.726013,173.784790 243.029770,186.428589 
	C245.136642,184.951584 247.277313,183.450867 249.953293,181.476639 
M267.884613,187.737518 
	C267.517853,190.414078 267.151093,193.090622 266.784515,195.765625 
	C284.029480,197.606339 300.592407,182.812164 296.895447,169.782028 
	C283.415283,169.329544 273.441254,175.277847 267.884613,187.737518 
M306.931671,201.644348 
	C290.108826,201.716949 278.467102,210.991882 278.416443,224.621735 
	C285.904724,225.837921 292.881226,224.454056 299.374908,220.539871 
	C305.229156,217.011139 309.035065,212.027847 310.220001,205.165939 
	C310.589600,203.025604 310.444244,201.480957 306.931671,201.644348 
M200.711899,201.887039 
	C197.775818,201.887039 194.839737,201.887039 191.960190,201.887039 
	C190.347565,216.005188 208.464600,227.979370 223.632370,224.368347 
	C223.338791,212.813843 215.501587,204.869080 200.711899,201.887039 
M209.745102,168.648697 
	C206.375092,167.637573 203.005081,166.626465 199.536499,165.585770 
	C197.242126,180.373810 209.518738,193.520859 223.940720,192.815628 
	C226.231537,183.473434 221.439285,174.986694 209.745102,168.648697 
M110.629288,269.954315 
	C121.842133,271.488556 129.995773,267.942963 134.329453,259.648376 
	C124.357475,249.898544 105.805649,253.001083 100.576263,265.356873 
	C103.642616,266.826294 106.742424,268.311768 110.629288,269.954315 
M249.787094,255.079422 
	C242.972046,256.827362 240.103241,259.875885 239.835953,265.653931 
	C239.583008,271.122437 242.215042,275.438629 246.918411,276.990875 
	C251.345215,278.451843 255.500366,277.884857 258.947327,274.579681 
	C262.608612,271.069031 263.052551,266.587921 261.493042,262.133881 
	C259.767731,257.206238 255.754105,255.066559 249.787094,255.079422 
M317.883118,130.257797 
	C308.583405,136.907959 304.951416,146.681061 308.675568,155.033722 
	C323.067017,153.560593 333.325623,138.337311 327.239349,126.634254 
	C324.380005,127.705101 321.455414,128.800400 317.883118,130.257797 
M193.991013,154.567734 
	C197.125732,140.586273 187.794235,127.873138 174.019043,127.358124 
	C169.875107,140.353806 179.060486,153.546341 193.991013,154.567734 
M381.635376,206.996536 
	C378.528900,209.834763 375.422394,212.672989 372.268341,215.554672 
	C382.194641,225.062119 401.400543,221.709015 406.214142,208.469040 
	C398.590820,203.324661 390.680206,202.366791 381.635376,206.996536 
M192.717606,301.217041 
	C194.942963,297.346558 197.168335,293.476074 199.498093,289.424011 
	C184.996002,284.177490 171.055939,292.654510 169.277863,306.838379 
	C177.925751,309.590881 185.505936,307.730194 192.717606,301.217041 
M325.495972,292.954407 
	C318.843414,287.542999 311.536499,286.213196 303.394318,288.901947 
	C306.408020,303.767853 320.540955,311.919312 333.952515,305.817841 
	C331.256836,301.591034 328.651215,297.505402 325.495972,292.954407 
M250.587997,128.087143 
	C259.154297,117.238014 258.090759,103.658684 248.082001,96.089989 
	C238.152359,104.222633 237.018677,119.232697 245.845306,128.088943 
	C246.636948,128.883255 248.642395,128.467834 250.587997,128.087143 
M382.425720,270.123932 
	C389.596130,271.300507 395.887909,269.504578 401.332001,264.710022 
	C394.523712,252.404282 377.961487,250.064056 367.550629,260.002625 
	C370.685394,265.513458 375.581573,268.553833 382.425720,270.123932 
M124.490799,219.244629 
	C126.039230,218.380722 127.587662,217.516830 129.118195,216.662918 
	C122.308258,203.445526 105.741302,199.849457 95.928574,209.104401 
	C100.883896,219.427460 111.560799,223.451309 124.490799,219.244629 
M137.781662,168.570267 
	C131.528168,164.519089 124.911713,163.769608 117.916306,165.988327 
	C118.175674,177.779694 133.326050,189.770554 147.225052,183.452515 
	C146.351089,177.372757 143.201477,172.677689 137.781662,168.570267 
M366.123871,167.367889 
	C359.914429,171.137009 355.658081,176.203003 354.839691,183.670197 
	C368.525574,188.417755 382.328247,180.103241 384.084839,166.099670 
	C378.209290,163.979706 372.476410,164.410263 366.123871,167.367889 
z"/>
<path fill="#FCFCFC" opacity="1.000000" stroke="none" 
	d="
M233.151581,318.017548 
	C232.123444,302.944763 225.844116,291.132263 214.264145,282.155579 
	C212.292740,280.627350 209.889694,279.510590 208.310089,277.668549 
	C207.054260,276.204102 206.751282,273.922577 206.025253,272.003784 
	C207.882248,271.577332 209.978912,270.367615 211.557587,270.850708 
	C222.356659,274.154999 231.865417,279.931396 240.497940,287.129730 
	C244.064285,290.103577 247.353363,293.409912 251.029999,296.806580 
	C253.684570,294.292999 256.354401,291.623657 259.173096,289.122040 
	C268.227844,281.086029 278.364197,274.784729 289.887115,270.992493 
	C291.605103,270.427094 294.709747,270.905060 295.754120,272.119965 
	C297.957367,274.682922 295.664551,276.568115 293.427216,278.016571 
	C279.717499,286.892303 270.243378,298.801086 269.194946,315.544373 
	C268.343964,329.134949 268.311218,342.826569 268.852997,356.436035 
	C269.180420,364.660767 270.723816,372.959412 272.751129,380.963898 
	C275.406158,391.446777 281.548706,399.796509 292.295868,405.592041 
	C280.783112,407.474060 270.627625,405.890320 262.049469,400.511139 
	C253.969452,395.444305 247.853577,395.608276 239.850372,400.573761 
	C231.307617,405.873932 221.242142,407.424927 211.005051,405.851410 
	C211.034851,405.452209 210.952759,404.988831 211.091980,404.908356 
	C226.715332,395.878204 231.395020,380.649780 232.610519,364.348053 
	C233.745605,349.124817 233.072083,333.766754 233.151581,318.017548 
z"/>
<path fill="#FBFBFB" opacity="1.000000" stroke="none" 
	d="
M226.122437,253.424088 
	C225.970032,254.485748 225.859695,255.593765 225.398666,255.766678 
	C208.625244,262.057251 188.900925,255.415955 182.336975,239.424789 
	C182.095581,238.836685 182.055145,238.166092 181.926971,237.561737 
	C198.708801,229.878403 218.227112,236.774658 226.122437,253.424088 
z"/>
<path fill="#FBFBFB" opacity="1.000000" stroke="none" 
	d="
M319.001129,236.878952 
	C318.459747,239.659958 318.071472,242.650162 316.553436,244.866531 
	C308.167572,257.110046 291.312988,261.332428 275.917206,255.342224 
	C277.563690,239.974136 299.121124,230.581467 319.001129,236.878952 
z"/>
<path fill="#FAFAFA" opacity="1.000000" stroke="none" 
	d="
M182.221710,274.284302 
	C169.472229,281.436005 157.721817,280.303040 147.993866,271.219452 
	C154.988953,256.920807 176.363022,254.519318 190.082367,267.050568 
	C187.536423,269.416595 185.028580,271.747192 182.221710,274.284302 
z"/>
<path fill="#FAFAFA" opacity="1.000000" stroke="none" 
	d="
M341.289093,260.504395 
	C346.062592,263.663849 350.478516,266.650604 355.037170,269.733917 
	C342.958496,283.263977 321.812836,281.173584 312.327454,266.509552 
	C320.677795,258.911560 330.218170,257.001587 341.289093,260.504395 
z"/>
<path fill="#FAFAFA" opacity="1.000000" stroke="none" 
	d="
M177.056366,185.075241 
	C162.824097,180.848602 154.834320,170.528809 155.384216,157.529892 
	C171.680176,153.974091 188.073944,168.376770 186.646179,185.791336 
	C183.595901,185.578888 180.528717,185.365265 177.056366,185.075241 
z"/>
<path fill="#FBFBFB" opacity="1.000000" stroke="none" 
	d="
M151.423523,215.664032 
	C147.389572,211.162354 143.652283,206.874008 139.904800,202.573944 
	C152.656494,191.810089 173.524368,199.936951 179.917572,217.284821 
	C170.216812,221.956879 160.887299,221.477844 151.423523,215.664032 
z"/>
<path fill="#FAFAFA" opacity="1.000000" stroke="none" 
	d="
M346.777191,160.681381 
	C344.242767,179.912888 326.421082,187.914520 315.420441,185.161942 
	C313.532166,169.876343 329.415283,154.471222 344.606354,157.034897 
	C345.501556,157.185974 346.092621,159.139420 346.777191,160.681381 
z"/>
<path fill="#FBFBFB" opacity="1.000000" stroke="none" 
	d="
M360.990601,201.919754 
	C353.805634,218.487579 337.295166,224.937820 322.496887,217.312927 
	C326.568909,198.539093 351.137482,193.252930 360.990601,201.919754 
z"/>
<path fill="#FAFAFA" opacity="1.000000" stroke="none" 
	d="
M245.920593,233.035583 
	C238.083405,222.034546 237.571533,210.062775 244.345093,200.834259 
	C259.709137,206.706390 265.556702,226.149277 255.637817,241.035370 
	C252.431686,238.435562 249.281693,235.881271 245.920593,233.035583 
z"/>
<path fill="#FAFAFA" opacity="1.000000" stroke="none" 
	d="
M281.613586,158.701736 
	C280.108276,159.719559 278.883759,160.508469 277.704498,161.268234 
	C266.378387,148.375275 269.587372,130.264923 284.574310,121.100288 
	C294.765411,130.790115 293.565186,147.527588 281.613586,158.701736 
z"/>
<path fill="#FAFAFA" opacity="1.000000" stroke="none" 
	d="
M229.139557,153.918854 
	C227.690231,156.560669 226.373001,158.832626 225.090942,161.043884 
	C209.947525,155.288696 205.839096,134.421646 216.914124,121.254646 
	C228.512344,126.402931 233.654861,139.842056 229.139557,153.918854 
z"/>
<path fill="#FAFAFA" opacity="1.000000" stroke="none" 
	d="
M349.120087,230.963638 
	C359.802399,227.778885 368.830688,230.033554 376.742249,237.170761 
	C369.278717,251.267380 347.339722,253.244446 335.134644,239.851959 
	C339.792969,236.840652 344.264038,233.950409 349.120087,230.963638 
z"/>
<path fill="#FAFAFA" opacity="1.000000" stroke="none" 
	d="
M126.903351,240.157410 
	C124.302414,237.931839 125.657341,236.712143 127.414154,235.300491 
	C139.158417,225.863602 156.211395,228.194580 165.896652,240.622025 
	C157.236481,251.951080 138.948288,251.857483 126.903351,240.157410 
z"/>
<path fill="#FBFBFB" opacity="1.000000" stroke="none" 
	d="
M249.685638,181.713409 
	C247.277313,183.450867 245.136642,184.951584 243.029770,186.428589 
	C232.726013,173.784790 238.417999,153.607285 253.677505,147.160538 
	C261.264984,157.606293 259.817169,170.946991 249.685638,181.713409 
z"/>
<path fill="#FAFAFA" opacity="1.000000" stroke="none" 
	d="
M267.987579,187.349121 
	C273.441254,175.277847 283.415283,169.329544 296.895447,169.782028 
	C300.592407,182.812164 284.029480,197.606339 266.784515,195.765625 
	C267.151093,193.090622 267.517853,190.414078 267.987579,187.349121 
z"/>
<path fill="#FAFAFA" opacity="1.000000" stroke="none" 
	d="
M307.320679,201.665344 
	C310.444244,201.480957 310.589600,203.025604 310.220001,205.165939 
	C309.035065,212.027847 305.229156,217.011139 299.374908,220.539871 
	C292.881226,224.454056 285.904724,225.837921 278.416443,224.621735 
	C278.467102,210.991882 290.108826,201.716949 307.320679,201.665344 
z"/>
<path fill="#FAFAFA" opacity="1.000000" stroke="none" 
	d="
M201.121490,201.925400 
	C215.501587,204.869080 223.338791,212.813843 223.632370,224.368347 
	C208.464600,227.979370 190.347565,216.005188 191.960190,201.887039 
	C194.839737,201.887039 197.775818,201.887039 201.121490,201.925400 
z"/>
<path fill="#FAFAFA" opacity="1.000000" stroke="none" 
	d="
M210.098557,168.788361 
	C221.439285,174.986694 226.231537,183.473434 223.940720,192.815628 
	C209.518738,193.520859 197.242126,180.373810 199.536499,165.585770 
	C203.005081,166.626465 206.375092,167.637573 210.098557,168.788361 
z"/>
<path fill="#F9F9F9" opacity="1.000000" stroke="none" 
	d="
M110.235764,269.875793 
	C106.742424,268.311768 103.642616,266.826294 100.576263,265.356873 
	C105.805649,253.001083 124.357475,249.898544 134.329453,259.648376 
	C129.995773,267.942963 121.842133,271.488556 110.235764,269.875793 
z"/>
<path fill="#FAFAFA" opacity="1.000000" stroke="none" 
	d="
M250.191299,255.060577 
	C255.754105,255.066559 259.767731,257.206238 261.493042,262.133881 
	C263.052551,266.587921 262.608612,271.069031 258.947327,274.579681 
	C255.500366,277.884857 251.345215,278.451843 246.918411,276.990875 
	C242.215042,275.438629 239.583008,271.122437 239.835953,265.653931 
	C240.103241,259.875885 242.972046,256.827362 250.191299,255.060577 
z"/>
<path fill="#F9F9F9" opacity="1.000000" stroke="none" 
	d="
M318.206970,130.076752 
	C321.455414,128.800400 324.380005,127.705101 327.239349,126.634254 
	C333.325623,138.337311 323.067017,153.560593 308.675568,155.033722 
	C304.951416,146.681061 308.583405,136.907959 318.206970,130.076752 
z"/>
<path fill="#F9F9F9" opacity="1.000000" stroke="none" 
	d="
M193.641846,154.803848 
	C179.060486,153.546341 169.875107,140.353806 174.019043,127.358124 
	C187.794235,127.873138 197.125732,140.586273 193.641846,154.803848 
z"/>
<path fill="#F9F9F9" opacity="1.000000" stroke="none" 
	d="
M381.972778,206.835510 
	C390.680206,202.366791 398.590820,203.324661 406.214142,208.469040 
	C401.400543,221.709015 382.194641,225.062119 372.268341,215.554672 
	C375.422394,212.672989 378.528900,209.834763 381.972778,206.835510 
z"/>
<path fill="#F9F9F9" opacity="1.000000" stroke="none" 
	d="
M192.464172,301.470886 
	C185.505936,307.730194 177.925751,309.590881 169.277863,306.838379 
	C171.055939,292.654510 184.996002,284.177490 199.498093,289.424011 
	C197.168335,293.476074 194.942963,297.346558 192.464172,301.470886 
z"/>
<path fill="#FAFAFA" opacity="1.000000" stroke="none" 
	d="
M325.770782,293.187103 
	C328.651215,297.505402 331.256836,301.591034 333.952515,305.817841 
	C320.540955,311.919312 306.408020,303.767853 303.394318,288.901947 
	C311.536499,286.213196 318.843414,287.542999 325.770782,293.187103 
z"/>
<path fill="#F9F9F9" opacity="1.000000" stroke="none" 
	d="
M250.336060,128.350677 
	C248.642395,128.467834 246.636948,128.883255 245.845306,128.088943 
	C237.018677,119.232697 238.152359,104.222633 248.082001,96.089989 
	C258.090759,103.658684 259.154297,117.238014 250.336060,128.350677 
z"/>
<path fill="#FAFAFA" opacity="1.000000" stroke="none" 
	d="
M382.024231,270.080627 
	C375.581573,268.553833 370.685394,265.513458 367.550629,260.002625 
	C377.961487,250.064056 394.523712,252.404282 401.332001,264.710022 
	C395.887909,269.504578 389.596130,271.300507 382.024231,270.080627 
z"/>
<path fill="#FAFAFA" opacity="1.000000" stroke="none" 
	d="
M124.133392,219.421997 
	C111.560799,223.451309 100.883896,219.427460 95.928574,209.104401 
	C105.741302,199.849457 122.308258,203.445526 129.118195,216.662918 
	C127.587662,217.516830 126.039230,218.380722 124.133392,219.421997 
z"/>
<path fill="#FAFAFA" opacity="1.000000" stroke="none" 
	d="
M138.085785,168.777039 
	C143.201477,172.677689 146.351089,177.372757 147.225052,183.452515 
	C133.326050,189.770554 118.175674,177.779694 117.916306,165.988327 
	C124.911713,163.769608 131.528168,164.519089 138.085785,168.777039 
z"/>
<path fill="#FAFAFA" opacity="1.000000" stroke="none" 
	d="
M366.472107,167.201691 
	C372.476410,164.410263 378.209290,163.979706 384.084839,166.099670 
	C382.328247,180.103241 368.525574,188.417755 354.839691,183.670197 
	C355.658081,176.203003 359.914429,171.137009 366.472107,167.201691 
z"/>
</svg>