<svg version="1.1" id="Layer_1" xmlns="http://www.w3.org/2000/svg" xmlns:xlink="http://www.w3.org/1999/xlink" x="0px" y="0px"
	 width="100%" viewBox="0 0 496 496" enable-background="new 0 0 496 496" xml:space="preserve">
<path fill="#000000" opacity="1.000000" stroke="none" 
	d="
M280.000000,497.000000 
	C186.666687,497.000000 93.833374,497.000000 1.000050,497.000000 
	C1.000033,331.666718 1.000033,166.333450 1.000017,1.000139 
	C166.333237,1.000092 331.666473,1.000092 496.999756,1.000046 
	C496.999847,166.333191 496.999847,331.666382 496.999939,496.999786 
	C424.833344,497.000000 352.666656,497.000000 280.000000,497.000000 
M75.376228,250.499817 
	C75.376450,286.662323 75.372177,322.824829 75.388985,358.987335 
	C75.389915,360.979919 75.309784,363.023895 75.698402,364.957336 
	C83.090546,401.735107 114.088448,427.573090 152.497284,427.603760 
	C214.490677,427.653259 276.484161,427.627411 338.477600,427.604980 
	C346.115814,427.602234 353.738098,427.792145 361.369751,426.671204 
	C376.945648,424.383362 390.661591,418.206360 402.257477,407.626831 
	C420.030029,391.411987 427.668304,370.881805 427.644226,347.093719 
	C427.579803,283.433838 427.491882,219.773483 427.687561,156.114136 
	C427.764252,131.160721 420.038452,109.692818 400.929779,93.188477 
	C388.579834,82.521721 374.375153,75.425659 357.601929,75.406715 
	C286.609558,75.326553 215.617020,75.379990 144.624557,75.405869 
	C141.807526,75.406898 139.019012,75.444336 136.184982,75.978729 
	C118.249512,79.360641 103.625389,88.400627 92.080276,102.250031 
	C81.468300,114.980072 75.276642,129.551361 75.338829,146.510803 
	C75.464706,180.840057 75.376381,215.170074 75.376228,250.499817 
z"/>
<path fill="#000000" opacity="1.000000" stroke="none" 
	d="
M233.625626,403.943787 
	C225.896240,406.108887 218.551239,408.282593 211.016983,406.098724 
	C210.537399,405.037720 210.770630,404.400848 211.368530,404.050903 
	C223.467239,396.969299 228.769241,385.523010 230.940048,372.455414 
	C234.144852,353.163544 234.596375,333.716858 232.285980,314.282654 
	C230.522278,299.446869 222.589722,288.384277 210.485123,279.982178 
	C207.819168,278.131683 203.289810,276.596771 205.661835,272.087708 
	C208.159027,267.340729 212.157349,270.318726 215.323578,271.515320 
	C227.494690,276.115051 238.084045,283.290588 247.210373,292.493134 
	C250.165298,295.472748 252.014557,295.373505 254.882538,292.465973 
	C264.117920,283.103271 274.936676,276.025970 287.220123,271.255737 
	C288.762878,270.656647 290.354736,270.110168 291.973785,269.800079 
	C294.011841,269.409698 295.498566,270.366730 296.441101,272.209473 
	C297.427673,274.138336 296.998413,275.825684 295.408661,277.120178 
	C293.215942,278.905640 290.926239,280.575928 288.633636,282.234131 
	C277.120941,290.561096 270.865753,302.062439 269.557770,315.948517 
	C267.759064,335.044952 267.811859,354.185211 271.262421,373.149384 
	C273.576202,385.866089 278.721680,396.959351 290.360901,403.971375 
	C290.742645,404.201355 290.948883,404.722656 291.499847,405.460083 
	C286.092010,408.229492 280.712189,406.746155 275.518188,405.863373 
	C268.571594,404.682770 262.072266,401.951660 256.130737,398.196991 
	C252.635803,395.988342 249.820114,395.657776 246.147232,398.042908 
	C242.422287,400.461823 238.073990,401.920837 233.625626,403.943787 
z"/>
<path fill="#000000" opacity="1.000000" stroke="none" 
	d="
M221.084991,257.591370 
	C204.641296,260.723236 190.216461,255.038330 183.450302,243.046799 
	C180.473068,237.770294 180.935822,236.615387 186.625763,235.121780 
	C201.641449,231.180145 217.927353,237.269257 224.873444,249.422165 
	C228.040161,254.962677 227.760162,255.630020 221.084991,257.591370 
z"/>
<path fill="#000000" opacity="1.000000" stroke="none" 
	d="
M306.321320,254.562592 
	C297.743134,258.843933 289.112366,259.496399 280.259003,257.388397 
	C274.433228,256.001251 274.063965,254.918335 277.082825,249.553177 
	C284.523926,236.328735 302.623138,230.626175 317.762085,235.842834 
	C320.566010,236.809021 320.619293,238.553406 319.537231,240.937897 
	C316.809601,246.948685 312.324463,251.219025 306.321320,254.562592 
z"/>
<path fill="#000000" opacity="1.000000" stroke="none" 
	d="
M151.425171,197.461807 
	C163.737122,197.046829 172.749237,201.932205 178.568054,212.350540 
	C181.152008,216.977005 180.527771,218.178619 175.394180,219.793045 
	C162.990448,223.693817 149.035721,218.264114 142.702789,207.073029 
	C139.450211,201.325317 140.123489,199.711517 146.575592,198.112915 
	C148.014648,197.756378 149.529434,197.705460 151.425171,197.461807 
z"/>
<path fill="#000000" opacity="1.000000" stroke="none" 
	d="
M176.363510,277.783173 
	C166.620163,280.862091 157.936844,279.587769 149.921036,273.818634 
	C147.278503,271.916779 147.219452,270.167084 149.287582,267.663391 
	C158.100372,256.994476 176.434158,255.117630 187.330078,263.738220 
	C190.112671,265.939728 190.294098,267.711090 187.840347,270.197662 
	C184.629776,273.451202 181.095779,276.128265 176.363510,277.783173 
z"/>
<path fill="#000000" opacity="1.000000" stroke="none" 
	d="
M320.088623,275.087158 
	C316.849762,272.514160 312.115417,270.446686 312.674011,266.620819 
	C313.257874,262.621796 318.316223,261.413452 321.971558,259.970367 
	C332.219757,255.924576 345.414459,259.384064 352.509247,267.477051 
	C354.879333,270.180603 354.574951,272.023468 351.793243,273.929321 
	C341.603424,280.910706 331.144806,281.296356 320.088623,275.087158 
z"/>
<path fill="#000000" opacity="1.000000" stroke="none" 
	d="
M354.304962,213.330414 
	C345.840607,220.497070 336.691223,222.791489 326.247162,219.617661 
	C322.186951,218.383789 321.436646,216.380234 323.292389,212.636368 
	C329.333344,200.449341 344.807159,194.218018 357.627777,198.768341 
	C361.498749,200.142258 362.020569,202.163071 360.158966,205.504547 
	C358.612061,208.281265 356.788696,210.819092 354.304962,213.330414 
z"/>
<path fill="#000000" opacity="1.000000" stroke="none" 
	d="
M346.196228,157.020081 
	C348.486633,164.598404 345.043518,170.512970 340.874939,175.907669 
	C335.839142,182.424652 328.694122,185.481720 320.592651,186.210052 
	C315.272583,186.688339 314.019196,185.202621 314.831451,179.896622 
	C317.077179,165.225662 330.919556,154.920303 346.196228,157.020081 
z"/>
<path fill="#000000" opacity="1.000000" stroke="none" 
	d="
M168.793274,182.436768 
	C160.796158,177.722641 156.691269,170.785110 154.935730,162.249191 
	C154.132919,158.345825 155.212952,156.412735 159.680054,156.438797 
	C172.848984,156.515640 184.746277,166.097473 187.138321,178.916916 
	C188.302856,185.157928 186.748993,186.912216 180.461182,186.169052 
	C176.481216,185.698654 172.644379,184.618820 168.793274,182.436768 
z"/>
<path fill="#000000" opacity="1.000000" stroke="none" 
	d="
M251.999207,239.085983 
	C240.227432,230.341843 236.164307,217.422913 241.071335,205.121765 
	C243.167419,199.867218 244.446487,199.448578 249.034332,202.515411 
	C260.351593,210.080612 264.469086,225.093140 258.766266,237.300919 
	C257.197144,240.659851 255.357544,241.544495 251.999207,239.085983 
z"/>
<path fill="#000000" opacity="1.000000" stroke="none" 
	d="
M219.188629,121.644073 
	C231.826584,130.682098 235.195084,146.399734 227.498459,158.352295 
	C225.501953,161.452789 223.690903,161.846008 220.695374,159.610901 
	C209.787537,151.471985 206.716187,135.067230 214.230026,123.886528 
	C215.290253,122.308876 216.207306,120.121323 219.188629,121.644073 
z"/>
<path fill="#000000" opacity="1.000000" stroke="none" 
	d="
M279.222595,160.865616 
	C276.778595,161.747253 275.946045,160.108063 274.996246,158.783844 
	C267.139374,147.829788 270.162964,130.582672 281.153168,122.636818 
	C284.177185,120.450447 285.991913,120.906387 287.953949,123.983917 
	C295.790192,136.275269 292.270721,151.886703 279.222595,160.865616 
z"/>
<path fill="#000000" opacity="1.000000" stroke="none" 
	d="
M151.624542,229.940811 
	C156.503952,231.504898 160.475327,233.785431 163.888107,237.090836 
	C166.668289,239.783524 166.569962,241.896805 163.416748,244.340515 
	C152.968750,252.437546 135.365067,250.756958 126.657951,240.812988 
	C124.492455,238.339874 124.591522,236.617340 127.234901,234.737091 
	C134.526535,229.550507 142.435638,227.565109 151.624542,229.940811 
z"/>
<path fill="#000000" opacity="1.000000" stroke="none" 
	d="
M354.083252,249.370911 
	C347.717194,249.431351 342.650726,247.214874 338.015656,243.723755 
	C335.658783,241.948593 335.497040,240.294174 337.435669,237.943481 
	C345.972443,227.592072 364.589111,226.062042 374.906128,234.861954 
	C377.464996,237.044540 377.292755,238.775238 375.072388,240.992996 
	C369.381683,246.676971 362.696991,249.789764 354.083252,249.370911 
z"/>
<path fill="#000000" opacity="1.000000" stroke="none" 
	d="
M248.928986,182.949997 
	C242.574295,187.648117 241.448746,187.331741 238.906158,180.441818 
	C234.809402,169.340347 239.093338,155.903091 248.932907,148.991333 
	C253.315094,145.913086 254.617737,146.265930 256.706696,151.097076 
	C261.509857,162.205353 258.859833,173.360657 248.928986,182.949997 
z"/>
<path fill="#000000" opacity="1.000000" stroke="none" 
	d="
M268.527222,184.886337 
	C273.975677,174.341904 283.033386,170.278824 293.829041,169.062943 
	C297.070374,168.697891 298.360260,170.240891 298.194672,173.442108 
	C297.559998,185.713318 281.434753,198.493469 269.360657,196.349564 
	C267.205048,195.966812 266.707336,194.826538 266.638367,192.954468 
	C266.537476,190.216797 267.339417,187.713028 268.527222,184.886337 
z"/>
<path fill="#000000" opacity="1.000000" stroke="none" 
	d="
M213.464447,225.209381 
	C203.431351,222.983154 195.658920,218.438156 192.100540,208.677567 
	C189.821167,202.425278 191.492889,200.249619 198.088562,200.988510 
	C209.269531,202.241058 218.762115,206.296188 223.142593,217.701691 
	C225.573242,224.030380 224.527206,225.382004 217.892868,225.369629 
	C216.564102,225.367157 215.235458,225.301285 213.464447,225.209381 
z"/>
<path fill="#000000" opacity="1.000000" stroke="none" 
	d="
M278.747375,218.164612 
	C283.096100,206.054474 295.067474,201.064240 306.336243,200.954575 
	C309.370697,200.925049 311.451447,201.868896 310.692932,205.752945 
	C307.834534,220.389511 291.658997,227.130554 280.088776,225.101410 
	C276.043182,224.391922 278.295746,220.955841 278.747375,218.164612 
z"/>
<path fill="#000000" opacity="1.000000" stroke="none" 
	d="
M198.835983,174.435760 
	C198.289062,165.059235 199.454269,164.159470 207.718582,167.295425 
	C217.059769,170.840027 223.452896,177.054810 225.093536,187.263245 
	C225.982666,192.795532 224.178574,194.528976 218.887482,193.068375 
	C209.212387,190.397537 201.881561,184.979050 198.835983,174.435760 
z"/>
<path fill="#000000" opacity="1.000000" stroke="none" 
	d="
M262.621185,265.324860 
	C263.285583,274.251953 256.119202,278.759064 249.911850,278.215485 
	C242.785294,277.591370 238.463074,271.581207 239.605591,263.999481 
	C240.439194,258.467682 244.874557,254.743027 250.724808,254.661987 
	C257.237274,254.571777 261.230103,258.037964 262.621185,265.324860 
z"/>
<path fill="#000000" opacity="1.000000" stroke="none" 
	d="
M168.905792,305.142639 
	C172.534973,292.331207 183.490524,285.070343 194.726974,287.260193 
	C198.878372,288.069275 199.411560,289.913300 198.122162,293.502380 
	C194.439026,303.754395 183.402023,310.225800 172.684280,308.189819 
	C171.072968,307.883698 169.335648,307.614685 168.905792,305.142639 
z"/>
<path fill="#000000" opacity="1.000000" stroke="none" 
	d="
M381.499146,175.310333 
	C375.767334,183.390823 368.178711,186.335663 358.825134,185.386795 
	C355.110657,185.009964 353.955200,183.362228 355.037231,179.740936 
	C358.167145,169.265991 371.098633,161.948792 381.584961,164.759048 
	C384.000580,165.406403 385.009827,166.770966 384.238831,169.097977 
	C383.567108,171.125427 382.566772,173.043991 381.499146,175.310333 
z"/>
<path fill="#000000" opacity="1.000000" stroke="none" 
	d="
M104.948883,268.359924 
	C99.360367,264.814911 99.255806,263.687286 103.788788,259.380829 
	C112.469627,251.133682 126.758385,251.308487 134.709381,259.759064 
	C129.977921,269.985138 117.064087,273.828888 104.948883,268.359924 
z"/>
<path fill="#000000" opacity="1.000000" stroke="none" 
	d="
M139.046082,185.451050 
	C129.045242,185.240417 122.718620,180.222046 118.762291,171.914627 
	C116.224678,166.586197 117.148827,165.002808 122.921303,164.501694 
	C132.423538,163.676773 139.822250,167.377380 144.890121,175.413879 
	C149.590118,182.867050 148.262955,185.209244 139.046082,185.451050 
z"/>
<path fill="#000000" opacity="1.000000" stroke="none" 
	d="
M123.987190,208.901428 
	C126.249420,211.441193 130.067795,213.291000 128.857315,216.697495 
	C127.782578,219.722000 123.880211,220.490036 120.857399,221.025116 
	C111.581123,222.667221 103.422295,220.613129 97.284546,212.854401 
	C94.817055,209.735245 95.240486,207.558182 98.934601,205.917557 
	C107.750534,202.002243 116.000694,202.801163 123.987190,208.901428 
z"/>
<path fill="#000000" opacity="1.000000" stroke="none" 
	d="
M307.718140,300.178467 
	C306.869659,298.911255 306.163086,297.979675 305.626648,296.958740 
	C304.327484,294.486206 302.176056,291.642700 303.697296,289.144714 
	C305.333069,286.458710 309.014801,286.751587 311.914764,287.024597 
	C321.426331,287.920166 328.458221,292.563477 332.124268,301.589905 
	C334.085510,306.418732 333.054840,307.887726 327.925385,308.316101 
	C319.977295,308.979828 313.245209,306.540710 307.718140,300.178467 
z"/>
<path fill="#000000" opacity="1.000000" stroke="none" 
	d="
M367.986938,258.711212 
	C378.173798,251.114609 391.028168,251.881210 399.026855,260.272461 
	C402.440765,263.853912 402.236633,265.271179 397.936859,267.840851 
	C388.825073,273.286346 376.758911,271.559204 369.658936,263.745636 
	C368.462463,262.428955 366.914978,261.160126 367.986938,258.711212 
z"/>
<path fill="#000000" opacity="1.000000" stroke="none" 
	d="
M374.036407,213.242966 
	C382.025085,203.662567 392.852020,201.038940 402.810822,205.783615 
	C406.535614,207.558197 407.437134,209.409088 404.690796,212.941574 
	C398.311096,221.147629 385.437042,224.129944 376.307800,219.215469 
	C374.045074,217.997391 371.627045,216.763947 374.036407,213.242966 
z"/>
<path fill="#000000" opacity="1.000000" stroke="none" 
	d="
M311.684814,155.162140 
	C308.545776,155.653336 307.385559,154.251450 306.882263,151.746307 
	C304.829773,141.529724 314.776398,128.039551 325.177673,126.898277 
	C328.423859,126.542091 329.113159,128.310257 329.343079,130.991348 
	C330.309357,142.258484 323.905151,151.270264 311.684814,155.162140 
z"/>
<path fill="#000000" opacity="1.000000" stroke="none" 
	d="
M177.183990,146.679901 
	C173.563431,141.579697 172.139084,136.263977 172.703949,130.384827 
	C172.995239,127.352997 174.457977,126.460907 177.410980,127.053101 
	C187.606491,129.097702 195.786987,139.448090 195.319702,149.903488 
	C195.088791,155.070145 193.307404,156.244507 188.222366,154.627350 
	C183.800095,153.220947 180.270782,150.571228 177.183990,146.679901 
z"/>
<path fill="#000000" opacity="1.000000" stroke="none" 
	d="
M255.410233,121.026917 
	C253.494720,124.907394 252.049500,130.022491 247.779953,129.673752 
	C243.797516,129.348434 242.088898,124.422745 240.836029,120.641586 
	C238.133560,112.485512 239.403549,104.926529 244.936127,98.169556 
	C247.190796,95.415909 249.197784,95.469032 251.384888,98.194725 
	C256.803467,104.947731 258.280243,112.402992 255.410233,121.026917 
z"/>
</svg>