<?xml version="1.0" standalone="no"?>
<!DOCTYPE svg PUBLIC "-//W3C//DTD SVG 20010904//EN"
 "http://www.w3.org/TR/2001/REC-SVG-20010904/DTD/svg10.dtd">
<svg version="1.0" xmlns="http://www.w3.org/2000/svg"
 width="500.000000pt" height="500.000000pt" viewBox="0 0 500.000000 500.000000"
 preserveAspectRatio="xMidYMid meet">
<metadata>
Created by potrace 1.14, written by Peter Selinger 2001-2017
</metadata>
<g transform="translate(0.000000,500.000000) scale(0.100000,-0.100000)"
fill="#000000" stroke="none">
<path d="M989 4986 c-2 -2 -24 -6 -49 -9 -330 -34 -679 -293 -825 -612 -40
-89 -42 -94 -64 -166 -40 -136 -41 -171 -40 -1728 0 -1636 -2 -1579 56 -1750
108 -322 368 -580 698 -692 l70 -24 1680 0 1680 0 75 25 c277 91 518 302 645
565 18 39 44 99 57 135 l23 65 3 1670 3 1670 -27 85 c-69 224 -200 410 -388
552 -84 63 -246 146 -336 171 -57 16 -79 21 -165 37 -47 8 -3087 14 -3096 6z"/>
</g>
</svg>
